<svg width="108" height="109" viewBox="0 0 108 109" fill="none" xmlns="http://www.w3.org/2000/svg">
<path d="M40.4257 7.49998C40.1284 7.79998 45.0826 17.2 51.4238 28.3L63.0165 48.5L70.844 48.8L78.5725 49.1L77.0862 46.8C76.2936 45.5 70.7449 36.1 64.8991 25.7L54.1981 6.99998H47.5596C43.8936 6.99998 40.7229 7.19998 40.4257 7.49998Z" fill="#FFD700"/>
<path d="M66.3853 7.59997C66.3853 7.89997 72.2312 18.3 79.4642 30.7C86.5982 43.2 92.444 53.9 92.444 54.5C92.444 55.4 75.8973 84.8 68.1688 97.8L66.1872 101.1L73.8165 100.8L81.545 100.5L94.7229 77.6L107.901 54.7L106.217 51.5C105.325 49.8 99.1817 39 92.6422 27.7L80.8514 6.99997H73.6184C69.6551 6.99997 66.3853 7.19997 66.3853 7.59997Z" fill="#FFD700"/>
<path d="M21.6 17.2C6.73761 42.7 0.693573 53.5 0.693573 54.5C0.693573 55.8 26.9505 101 27.7431 101C28.3376 100.9 54.4954 55.6 54.4954 54.5C54.4954 53.4 29.8238 10.9 28.2385 9.19999C27.2477 7.99999 25.9596 9.49999 21.6 17.2Z" fill="#FFD700"/>
<path d="M51.2257 81L39.8312 101H47.3615L54.9908 100.9L65.8899 81.8C71.9339 71.2 76.9871 62.2 77.0862 61.8C77.2844 61.4 74.1138 61 70.0514 61H62.7193L51.2257 81Z" fill="#FFD700"/>
</svg>
