<svg width="65" height="65" viewBox="0 0 65 65" fill="none" xmlns="http://www.w3.org/2000/svg">
<g clip-path="url(#clip0_108_70)">
<path d="M65 14.7794V52.4496C65 54.8979 63.0175 56.8804 60.5692 56.8804H50.226V31.7688L32.5 45.0667L14.774 31.7688V56.8831H4.43083C3.84874 56.8831 3.27235 56.7684 2.7346 56.5456C2.19685 56.3228 1.70828 55.9962 1.2968 55.5844C0.885328 55.1727 0.559011 54.6839 0.3365 54.146C0.113989 53.6081 -0.000354975 53.0317 8.27806e-07 52.4496V14.7794C8.27806e-07 9.30043 6.25354 6.17231 10.6356 9.46023L14.774 12.5667L32.5 25.8592L50.226 12.5613L54.3644 9.46023C58.7437 6.17502 65 9.30043 65 14.7794Z" fill="#E67E22"/>
</g>
<defs>
<clipPath id="clip0_108_70">
<rect width="65" height="65" fill="white"/>
</clipPath>
</defs>
</svg>
