<svg width="55" height="55" viewBox="0 0 55 55" fill="none" xmlns="http://www.w3.org/2000/svg">
<g clip-path="url(#clip0_134_508)">
<path d="M55 12.5056V44.3804C55 46.452 53.3225 48.1295 51.2508 48.1295H42.499V26.8812L27.5 38.1333L12.501 26.8812V48.1318H3.74917C3.25663 48.1318 2.76891 48.0348 2.31389 47.8462C1.85887 47.6577 1.44547 47.3813 1.0973 47.0329C0.749123 46.6845 0.47301 46.2709 0.284731 45.8158C0.0964525 45.3607 -0.000300363 44.8729 7.00451e-07 44.3804V12.5056C7.00451e-07 7.86952 5.29146 5.22265 8.99938 8.00473L12.501 10.6333L27.5 21.8808L42.499 10.6287L46.0006 8.00473C49.7063 5.22494 55 7.86952 55 12.5056Z" fill="#C76A27"/>
</g>
<defs>
<clipPath id="clip0_134_508">
<rect width="55" height="55" fill="white"/>
</clipPath>
</defs>
</svg>
