<svg width="65" height="65" viewBox="0 0 65 65" fill="none" xmlns="http://www.w3.org/2000/svg">
<path fill-rule="evenodd" clip-rule="evenodd" d="M32.5 48.75C41.4746 48.75 48.75 41.4746 48.75 32.5C48.75 23.5254 41.4746 16.25 32.5 16.25C23.5254 16.25 16.25 23.5254 16.25 32.5C16.25 41.4746 23.5254 48.75 32.5 48.75ZM32.5 43.3333C38.483 43.3333 43.3333 38.483 43.3333 32.5C43.3333 26.5169 38.483 21.6667 32.5 21.6667C26.5169 21.6667 21.6667 26.5169 21.6667 32.5C21.6667 38.483 26.5169 43.3333 32.5 43.3333Z" fill="#E67E22"/>
<path d="M48.7501 13.5417C47.2543 13.5417 46.0417 14.7543 46.0417 16.2501C46.0417 17.7458 47.2543 18.9584 48.7501 18.9584C50.2459 18.9584 51.4584 17.7458 51.4584 16.2501C51.4584 14.7543 50.2459 13.5417 48.7501 13.5417Z" fill="#E67E22"/>
<path fill-rule="evenodd" clip-rule="evenodd" d="M4.47939 11.5809C2.70825 15.057 2.70825 19.6074 2.70825 28.7083V36.2916C2.70825 45.3924 2.70825 49.9429 4.47939 53.4188C6.03734 56.4765 8.52326 58.9625 11.5809 60.5203C15.057 62.2916 19.6074 62.2916 28.7083 62.2916H36.2916C45.3924 62.2916 49.9429 62.2916 53.4188 60.5203C56.4765 58.9625 58.9625 56.4765 60.5203 53.4188C62.2916 49.9429 62.2916 45.3924 62.2916 36.2916V28.7083C62.2916 19.6074 62.2916 15.057 60.5203 11.5809C58.9625 8.52326 56.4765 6.03734 53.4188 4.47939C49.9429 2.70825 45.3924 2.70825 36.2916 2.70825H28.7083C19.6074 2.70825 15.057 2.70825 11.5809 4.47939C8.52326 6.03734 6.03734 8.52326 4.47939 11.5809ZM36.2916 8.12492H28.7083C24.0684 8.12492 20.9143 8.12914 18.4764 8.32831C16.1016 8.52234 14.8872 8.87402 14.04 9.30567C12.0016 10.3443 10.3443 12.0016 9.30567 14.04C8.87402 14.8872 8.52234 16.1016 8.32831 18.4764C8.12914 20.9143 8.12492 24.0684 8.12492 28.7083V36.2916C8.12492 40.9315 8.12914 44.0854 8.32831 46.5234C8.52234 48.8983 8.87402 50.1127 9.30567 50.9599C10.3443 52.9982 12.0016 54.6554 14.04 55.6941C14.8872 56.1258 16.1016 56.4776 18.4764 56.6715C20.9143 56.8706 24.0684 56.8749 28.7083 56.8749H36.2916C40.9315 56.8749 44.0854 56.8706 46.5234 56.6715C48.8983 56.4776 50.1127 56.1258 50.9599 55.6941C52.9982 54.6554 54.6554 52.9982 55.6941 50.9599C56.1258 50.1127 56.4776 48.8983 56.6715 46.5234C56.8706 44.0854 56.8749 40.9315 56.8749 36.2916V28.7083C56.8749 24.0684 56.8706 20.9143 56.6715 18.4764C56.4776 16.1016 56.1258 14.8872 55.6941 14.04C54.6554 12.0016 52.9982 10.3443 50.9599 9.30567C50.1127 8.87402 48.8983 8.52234 46.5234 8.32831C44.0854 8.12914 40.9315 8.12492 36.2916 8.12492Z" fill="#E67E22"/>
</svg>
