<svg width="55" height="55" viewBox="0 0 55 55" fill="none" xmlns="http://www.w3.org/2000/svg">
<path fill-rule="evenodd" clip-rule="evenodd" d="M27.5 41.25C35.0939 41.25 41.25 35.0939 41.25 27.5C41.25 19.9061 35.0939 13.75 27.5 13.75C19.9061 13.75 13.75 19.9061 13.75 27.5C13.75 35.0939 19.9061 41.25 27.5 41.25ZM27.5 36.6667C32.5625 36.6667 36.6667 32.5625 36.6667 27.5C36.6667 22.4374 32.5625 18.3333 27.5 18.3333C22.4374 18.3333 18.3333 22.4374 18.3333 27.5C18.3333 32.5625 22.4374 36.6667 27.5 36.6667Z" fill="#C76A27"/>
<path d="M41.2499 11.4584C39.9842 11.4584 38.9583 12.4844 38.9583 13.75C38.9583 15.0157 39.9842 16.0417 41.2499 16.0417C42.5156 16.0417 43.5416 15.0157 43.5416 13.75C43.5416 12.4844 42.5156 11.4584 41.2499 11.4584Z" fill="#C76A27"/>
<path fill-rule="evenodd" clip-rule="evenodd" d="M3.79041 9.79926C2.29175 12.7405 2.29175 16.5909 2.29175 24.2916V30.7083C2.29175 38.409 2.29175 42.2594 3.79041 45.2006C5.10866 47.7879 7.21214 49.8914 9.79939 51.2095C12.7407 52.7083 16.591 52.7083 24.2917 52.7083H30.7084C38.4091 52.7083 42.2596 52.7083 45.2007 51.2095C47.788 49.8914 49.8915 47.7879 51.2097 45.2006C52.7084 42.2594 52.7084 38.409 52.7084 30.7083V24.2916C52.7084 16.5909 52.7084 12.7405 51.2097 9.79926C49.8915 7.21202 47.788 5.10854 45.2007 3.79028C42.2596 2.29163 38.4091 2.29163 30.7084 2.29163H24.2917C16.591 2.29163 12.7407 2.29163 9.79939 3.79028C7.21214 5.10854 5.10866 7.21202 3.79041 9.79926ZM30.7084 6.87496H24.2917C20.3658 6.87496 17.6969 6.87853 15.634 7.04706C13.6246 7.21124 12.597 7.50881 11.8802 7.87406C10.1554 8.75291 8.75303 10.1552 7.87418 11.8801C7.50893 12.5969 7.21136 13.6245 7.04719 15.6339C6.87866 17.6968 6.87508 20.3656 6.87508 24.2916V30.7083C6.87508 34.6344 6.87866 37.303 7.04719 39.366C7.21136 41.3755 7.50893 42.4031 7.87418 43.12C8.75303 44.8447 10.1554 46.2469 11.8802 47.1258C12.597 47.4911 13.6246 47.7888 15.634 47.9529C17.6969 48.1213 20.3658 48.125 24.2917 48.125H30.7084C34.6345 48.125 37.3031 48.1213 39.3661 47.9529C41.3757 47.7888 42.4032 47.4911 43.1201 47.1258C44.8448 46.2469 46.2471 44.8447 47.1259 43.12C47.4912 42.4031 47.7889 41.3755 47.953 39.366C48.1214 37.303 48.1251 34.6344 48.1251 30.7083V24.2916C48.1251 20.3656 48.1214 17.6968 47.953 15.6339C47.7889 13.6245 47.4912 12.5969 47.1259 11.8801C46.2471 10.1552 44.8448 8.75291 43.1201 7.87406C42.4032 7.50881 41.3757 7.21124 39.3661 7.04706C37.3031 6.87853 34.6345 6.87496 30.7084 6.87496Z" fill="#C76A27"/>
</svg>
