<svg width="55" height="55" viewBox="0 0 55 55" fill="none" xmlns="http://www.w3.org/2000/svg">
<path fill-rule="evenodd" clip-rule="evenodd" d="M17.2975 49.4994C38.0518 49.4994 49.4037 32.5692 49.4037 17.8892C49.4037 17.4073 49.4038 16.929 49.3708 16.4524C51.579 14.8821 53.4848 12.9323 55 10.7013C52.943 11.6002 50.7567 12.1897 48.521 12.4496C50.875 11.0607 52.6377 8.87858 53.482 6.30376C51.2655 7.59793 48.8427 8.51131 46.3155 9.00139C42.042 4.5286 34.8948 4.31189 30.349 8.51933C27.4203 11.2322 26.1745 15.2771 27.0847 19.1353C18.0125 18.6859 9.559 14.4677 3.828 7.52837C0.833251 12.6049 2.365 19.0968 7.32325 22.3566C5.5275 22.3052 3.77025 21.8292 2.2 20.9682V21.1092C2.20275 26.3969 5.9895 30.9499 11.253 31.9977C9.592 32.4445 7.8485 32.5092 6.16 32.1871C7.63675 36.714 11.8745 39.8146 16.7008 39.904C12.705 42.9959 7.76875 44.6749 2.68675 44.6695C1.79025 44.6668 0.89375 44.6153 0 44.5097C5.16175 47.7695 11.165 49.4995 17.2975 49.4914" fill="#C76A27"/>
</svg>
