<svg width="65" height="65" viewBox="0 0 65 65" fill="none" xmlns="http://www.w3.org/2000/svg">
<path fill-rule="evenodd" clip-rule="evenodd" d="M20.4425 58.4993C44.9702 58.4993 58.3862 38.4909 58.3862 21.1418C58.3862 20.5722 58.3862 20.007 58.3472 19.4438C60.957 17.5879 63.2092 15.2836 65 12.647C62.569 13.7094 59.9852 14.406 57.343 14.7132C60.125 13.0717 62.2082 10.4929 63.206 7.44989C60.5865 8.97938 57.7232 10.0588 54.7365 10.638C49.686 5.35198 41.2393 5.09587 35.867 10.0683C32.4058 13.2745 30.9335 18.0548 32.0092 22.6144C21.2875 22.0833 11.297 17.0981 4.524 8.89716C0.984751 14.8967 2.795 22.5689 8.65475 26.4215C6.5325 26.3606 4.45575 25.7981 2.6 24.7806V24.9472C2.60325 31.1964 7.0785 36.5772 13.299 37.8155C11.336 38.3435 9.2755 38.42 7.28 38.0393C9.02525 43.3893 14.0335 47.0537 19.7372 47.1592C15.015 50.8134 9.18125 52.7976 3.17525 52.7912C2.11575 52.788 1.05625 52.7271 0 52.6024C6.10025 56.4549 13.195 58.4994 20.4425 58.4898" fill="#E67E22"/>
</svg>
