<svg width="55" height="55" viewBox="0 0 55 55" fill="none" xmlns="http://www.w3.org/2000/svg">
<g clip-path="url(#clip0_134_506)">
<path fill-rule="evenodd" clip-rule="evenodd" d="M21.9682 34.6118V19.1793C27.4468 21.7573 31.6899 24.2476 36.7083 26.9325C32.5692 29.2279 27.4468 31.8035 21.9682 34.6118ZM52.5003 11.504C51.5552 10.2589 49.9445 9.28974 48.2297 8.96887C43.1895 8.01174 11.7452 8.00901 6.70767 8.96887C5.33255 9.22666 4.10805 9.84976 3.05616 10.8179C-1.376 14.9316 0.012832 36.9922 1.08115 40.5657C1.53039 42.1124 2.11115 43.228 2.84254 43.9602C3.78485 44.9283 5.07503 45.5949 6.55699 45.8938C10.707 46.7522 32.0871 47.2322 48.1421 46.0227C49.6213 45.7649 50.9306 45.0769 51.9633 44.0676C56.0613 39.9703 55.7819 16.6709 52.5003 11.504Z" fill="#C76A27"/>
</g>
<defs>
<clipPath id="clip0_134_506">
<rect width="55" height="55" fill="white"/>
</clipPath>
</defs>
</svg>
