<svg width="65" height="65" viewBox="0 0 65 65" fill="none" xmlns="http://www.w3.org/2000/svg">
<g clip-path="url(#clip0_104_213)">
<path fill-rule="evenodd" clip-rule="evenodd" d="M25.9624 40.9049V22.6665C32.4371 25.7131 37.4517 28.6562 43.3825 31.8293C38.4909 34.5421 32.4371 37.586 25.9624 40.9049ZM62.0458 13.5957C60.9289 12.1242 59.0254 10.9788 56.9988 10.5996C51.0421 9.46842 13.8807 9.4652 7.92725 10.5996C6.3021 10.9042 4.85497 11.6406 3.61183 12.7848C-1.62618 17.6464 0.0151651 43.718 1.27773 47.9412C1.80865 49.7692 2.49499 51.0876 3.35936 51.953C4.473 53.0971 5.99777 53.8848 7.74916 54.2381C12.6537 55.2526 37.9211 55.8198 56.8952 54.3905C58.6433 54.0858 60.1907 53.2727 61.4112 52.0799C66.2543 47.2377 65.9241 19.7019 62.0458 13.5957Z" fill="#E67E22"/>
</g>
<defs>
<clipPath id="clip0_104_213">
<rect width="65" height="65" fill="white"/>
</clipPath>
</defs>
</svg>
